<svg xmlns="http://www.w3.org/2000/svg" version="1.1" xmlns:xlink="http://www.w3.org/1999/xlink" xmlns:svgjs="http://svgjs.dev/svgjs" width="2000" height="919" viewBox="0 0 2000 919"><g transform="matrix(1,0,0,1,-1.2121212121212466,-0.1535383352241979)"><svg viewBox="0 0 396 182" data-background-color="#ed2647" preserveAspectRatio="xMidYMid meet" height="919" width="2000" xmlns="http://www.w3.org/2000/svg" xmlns:xlink="http://www.w3.org/1999/xlink"><g id="tight-bounds" transform="matrix(1,0,0,1,0.2400000000000091,0.03040693907595937)"><svg viewBox="0 0 395.52 181.93918612184808" height="181.93918612184808" width="395.52"><g><svg viewBox="0 0 537.391345339535 247.2" height="181.93918612184808" width="395.52"><g><svg viewBox="0 0 296.0651162790698 247.2" height="247.2" width="296.0651162790698"><g id="textblocktransform"><svg viewBox="0 0 296.0651162790698 247.2" height="247.2" width="296.0651162790698" id="textblock"><g><svg viewBox="0 0 296.0651162790698 247.2" height="247.2" width="296.0651162790698"><g transform="matrix(1,0,0,1,0,0)"><svg width="296.0651162790698" viewBox="3 -34.4 41.2 34.4" height="247.2" data-palette-color="#ffffff"><path d="M44.2 0L33.25 0 33.25-12.4Q33.25-14.7 33.43-17.13 33.6-19.55 33.8-21.2 34-22.85 34.05-23.3L34.05-23.3 33.85-23.3 27.5 0 18.85 0 12.45-23.25 12.25-23.25Q12.3-22.8 12.53-21.18 12.75-19.55 12.95-17.13 13.15-14.7 13.15-12.4L13.15-12.4 13.15 0 3 0 3-34.4 18.6-34.4 23.8-14.55 24-14.55 29.15-34.4 44.2-34.4 44.2 0Z" opacity="1" transform="matrix(1,0,0,1,0,0)" fill="#ffffff" class="wordmark-text-0" data-fill-palette-color="primary" id="text-0"></path></svg></g></svg></g></svg></g></svg></g><g transform="matrix(1,0,0,1,354.4231034790698,32.11587906976743)"><svg viewBox="0 0 182.96824186046513 182.96824186046513" height="182.96824186046513" width="182.96824186046513"><g data-palette-color="#ffffff"><rect width="50.01131944186047" height="182.96824186046513" fill="#ffffff" stroke="transparent" data-fill-palette-color="accent" x="0" fill-opacity="1"></rect><rect width="50.01131944186047" height="182.96824186046513" fill="#ffffff" stroke="transparent" data-fill-palette-color="accent" x="60.98941395348838" fill-opacity="0.75"></rect><rect width="50.01131944186047" height="182.96824186046513" fill="#ffffff" stroke="transparent" data-fill-palette-color="accent" x="121.97882790697676" fill-opacity="0.5"></rect></g></svg></g></svg></g><defs></defs></svg><rect width="395.52" height="181.93918612184808" fill="none" stroke="none" visibility="hidden"></rect></g></svg></g></svg>